<?xml version="1.0" standalone="no"?>
<!DOCTYPE svg PUBLIC "-//W3C//DTD SVG 20010904//EN"
 "http://www.w3.org/TR/2001/REC-SVG-20010904/DTD/svg10.dtd">
<svg version="1.0" xmlns="http://www.w3.org/2000/svg"
 width="512.000000pt" height="512.000000pt" viewBox="0 0 512.000000 512.000000"
 preserveAspectRatio="xMidYMid meet">

<g transform="translate(0.000000,512.000000) scale(0.100000,-0.100000)"
fill="#000000" stroke="none">
<path d="M4040 4834 c-112 -16 -175 -30 -235 -51 -310 -111 -531 -340 -629
-653 -36 -112 -52 -271 -40 -378 l10 -82 -1129 -2 -1129 -3 -19 -24 c-24 -30
-24 -72 0 -102 l19 -24 1149 -3 1149 -2 28 -66 c62 -141 181 -292 309 -391 62
-48 193 -120 270 -148 l47 -18 -2 -881 c-3 -855 -4 -882 -23 -910 -35 -52 -61
-56 -335 -56 l-251 0 -24 -25 -25 -24 0 -226 0 -227 -38 34 c-22 18 -143 131
-271 251 l-231 217 -111 0 c-103 0 -111 -1 -134 -25 -14 -13 -25 -36 -25 -50
0 -14 11 -37 25 -50 22 -22 32 -25 105 -25 l80 0 313 -293 c172 -162 322 -299
334 -306 13 -6 34 -9 48 -5 53 13 55 25 55 326 l0 278 213 0 c256 0 285 7 364
85 88 88 83 33 83 1019 l0 861 108 -3 c656 -23 1152 599 989 1239 -26 101 -86
238 -118 270 -29 29 -83 25 -108 -7 -12 -15 -21 -32 -21 -39 0 -7 18 -51 40
-98 122 -260 117 -525 -15 -776 -146 -277 -459 -454 -775 -438 -134 7 -211 27
-335 87 -263 127 -430 365 -467 665 -29 240 55 484 230 667 169 177 367 261
612 260 177 0 311 -40 460 -136 43 -28 82 -46 100 -46 55 0 87 59 60 110 -14
25 -160 117 -238 149 -152 62 -346 93 -472 75z"/>
<path d="M4001 4471 c-147 -55 -251 -197 -251 -343 0 -59 24 -88 74 -88 44 0
76 37 76 89 1 82 79 179 162 202 148 40 287 -67 288 -220 0 -125 -76 -203
-223 -226 -73 -11 -77 -25 -77 -231 0 -168 1 -183 21 -208 27 -34 77 -36 107
-3 20 22 22 33 22 159 l0 135 60 22 c78 29 165 109 205 188 28 53 30 67 30
163 0 93 -3 111 -27 162 -34 74 -107 147 -183 183 -81 38 -204 45 -284 16z"/>
<path d="M226 3660 c-96 -17 -189 -102 -216 -198 -6 -24 -10 -435 -10 -1188 0
-1286 -5 -1202 72 -1289 22 -25 59 -56 82 -68 l41 -22 963 -3 963 -2 24 24
c32 32 32 70 0 101 l-24 25 -938 0 c-923 0 -939 0 -971 20 -66 40 -63 -27 -60
1235 l3 1145 33 32 32 33 191 5 191 5 24 28 c30 35 30 59 0 94 l-24 28 -164 2
c-89 1 -185 -3 -212 -7z"/>
<path d="M4092 3320 c-52 -21 -48 -107 7 -130 75 -31 134 58 76 115 -25 26
-45 30 -83 15z"/>
<path d="M866 2748 c-169 -32 -326 -177 -371 -342 -13 -47 -16 -89 -13 -158 3
-83 8 -103 41 -171 120 -253 418 -351 663 -218 l57 31 48 -45 c56 -52 88 -57
124 -20 37 37 32 68 -21 125 l-46 49 21 34 c51 84 75 206 61 311 -37 266 -300
455 -564 404z m240 -181 c57 -29 112 -85 146 -149 30 -57 33 -211 5 -272 l-17
-39 -54 52 c-62 58 -93 65 -131 26 -38 -38 -32 -69 26 -130 l51 -54 -44 -23
c-65 -34 -192 -33 -268 3 -114 54 -180 152 -188 279 -3 60 0 86 17 131 69 181
283 264 457 176z"/>
<path d="M1658 2730 l-29 -30 3 -322 3 -323 28 -57 c32 -65 103 -134 174 -169
41 -20 63 -24 148 -24 88 0 107 3 157 27 76 35 150 106 179 171 23 51 24 60
27 375 l3 322 -30 30 c-36 36 -61 38 -98 6 l-28 -24 -5 -325 c-5 -311 -6 -327
-26 -354 -32 -42 -117 -83 -173 -83 -57 0 -145 42 -175 83 -20 27 -21 46 -26
354 l-5 325 -28 24 c-37 32 -62 30 -99 -6z"/>
<path d="M2549 2731 l-29 -29 0 -427 0 -426 25 -24 c30 -31 77 -33 105 -5 19
19 20 33 20 459 l0 440 -26 20 c-36 28 -60 26 -95 -8z"/>
<path d="M2883 2750 c-44 -18 -57 -86 -23 -120 19 -19 33 -20 220 -20 110 0
200 -3 200 -6 0 -3 -102 -161 -226 -351 -124 -191 -228 -359 -231 -374 -4 -21
1 -34 20 -53 l26 -26 299 0 299 0 21 23 c28 30 29 78 1 103 -19 17 -43 20
-234 24 l-214 5 225 344 c123 190 227 355 230 367 9 34 -4 63 -36 79 -24 12
-78 15 -292 14 -145 0 -273 -4 -285 -9z"/>
</g>
</svg>
